<svg xmlns="http://www.w3.org/2000/svg" width="613.214" height="183.13" viewBox="0 0 613.214 183.13">
  <g id="xello-logo" transform="translate(0 0)">
    <g id="Top" transform="translate(0 0)">
      <g id="Xello-Logo-2" data-name="Xello-Logo">
        <g id="Page-1">
          <path id="Fill-1" d="M0,137.941a16.861,16.861,0,0,1,4.537-11.4L44.633,77.7,7.489,32.924a28.037,28.037,0,0,1-4.011-6.243A15.114,15.114,0,0,1,2.14,20.437q0-7.051,4.412-11.12A14.987,14.987,0,0,1,17.11,5.247a16.024,16.024,0,0,1,8.416,2.168,24.141,24.141,0,0,1,6.546,5.969L63.886,55.72,96.225,13.649a28.8,28.8,0,0,1,6.272-6.1,13.22,13.22,0,0,1,7.621-2.3,15.323,15.323,0,0,1,10.826,4.07,13.422,13.422,0,0,1,4.412,10.306,14.3,14.3,0,0,1-1.2,6.107,21.07,21.07,0,0,1-3.345,5.02l-38.221,46.4,39.562,47.491a28.819,28.819,0,0,1,4.009,6.241,15.237,15.237,0,0,1,1.332,6.243c0,4.709-1.468,8.407-4.405,11.122a15.018,15.018,0,0,1-10.559,4.076,16.015,16.015,0,0,1-8.423-2.175,22.267,22.267,0,0,1-6.546-6.238L63.349,99.135,29.137,143.908a35.3,35.3,0,0,1-6.285,5.969,13,13,0,0,1-7.888,2.444,14.992,14.992,0,0,1-10.548-4.076A13.4,13.4,0,0,1,0,137.941" transform="translate(0 29.454)" fill="#fff" fill-rule="evenodd"/>
          <g id="Group-5" transform="translate(148.413 33.61)">
            <path id="Fill-3" d="M104.824,64.767a57.005,57.005,0,0,0-3.479-14.789,39.807,39.807,0,0,0-7.218-12.072A31.833,31.833,0,0,0,83.3,29.895a34.357,34.357,0,0,0-14.294-2.842q-14.969,0-24.727,10.442T32.39,64.767Zm18.71,65.943a76.628,76.628,0,0,1-21.921,13.838q-12.294,5.146-28.867,5.155a74.327,74.327,0,0,1-28.464-5.424A69.266,69.266,0,0,1,21.3,129.089,70.611,70.611,0,0,1,5.928,105.606,79.1,79.1,0,0,1,.312,75.355V74.81A82.051,82.051,0,0,1,5.394,45.778a73.012,73.012,0,0,1,14.3-23.748A67.457,67.457,0,0,1,41.475,6.022,65.284,65.284,0,0,1,69.273.184q16.84,0,29.408,6.385A64.989,64.989,0,0,1,119.658,23.12a69.641,69.641,0,0,1,12.563,22.658,78.953,78.953,0,0,1,4.142,24.96,15.2,15.2,0,0,1-15.235,15.743H32.658q2.657,17.649,13.761,27,11.085,9.358,26.865,9.359a47.174,47.174,0,0,0,18.3-3.389,60.009,60.009,0,0,0,15.1-9.089,22.59,22.59,0,0,1,3.608-2.175,11.263,11.263,0,0,1,4.677-.812,12.289,12.289,0,0,1,9.084,3.8,13.792,13.792,0,0,1,2.547,15.059,16.057,16.057,0,0,1-3.073,4.479Z" transform="translate(-0.312 -0.184)" fill="#fff" fill-rule="evenodd"/>
          </g>
          <path id="Fill-6" d="M48.3,16.282a16.1,16.1,0,0,1,4.531-11.54A15.272,15.272,0,0,1,64.339,0,15.672,15.672,0,0,1,75.958,4.742a15.857,15.857,0,0,1,4.683,11.54v148.67a15.713,15.713,0,0,1-4.683,11.667,15.9,15.9,0,0,1-11.619,4.613,15.584,15.584,0,0,1-11.367-4.613A15.742,15.742,0,0,1,48.3,164.952Z" transform="translate(271.175 0)" fill="#fff" fill-rule="evenodd"/>
          <path id="Fill-8" d="M59.86,16.282A16.126,16.126,0,0,1,64.4,4.742,15.27,15.27,0,0,1,75.9,0,15.683,15.683,0,0,1,87.523,4.742,15.868,15.868,0,0,1,92.2,16.282v148.67a15.724,15.724,0,0,1-4.677,11.667A15.909,15.909,0,0,1,75.9,181.232a15.869,15.869,0,0,1-16.037-16.28Z" transform="translate(336.056 0)" fill="#fff" fill-rule="evenodd"/>
          <g id="Group-12" transform="translate(462.739 33.611)">
            <path id="Fill-10" d="M75.416,120.94A41.748,41.748,0,0,0,93.2,117.279a42.28,42.28,0,0,0,13.49-9.77,41.517,41.517,0,0,0,8.561-14.38,51.811,51.811,0,0,0,2.936-17.507v-.543a49.879,49.879,0,0,0-3.2-17.908,45.148,45.148,0,0,0-8.959-14.65,42.88,42.88,0,0,0-13.632-9.908,41.078,41.078,0,0,0-17.5-3.665,41.12,41.12,0,0,0-17.509,3.665,42.3,42.3,0,0,0-13.49,9.768,41.3,41.3,0,0,0-8.558,14.38A52.577,52.577,0,0,0,32.4,74.535v.545a48.954,48.954,0,0,0,3.2,17.636,44.863,44.863,0,0,0,8.951,14.656,42.913,42.913,0,0,0,13.634,9.908,40.388,40.388,0,0,0,17.231,3.661M74.888,149.7a75.6,75.6,0,0,1-29.8-5.831A73.806,73.806,0,0,1,21.3,128,71.955,71.955,0,0,1,5.657,104.391a74.581,74.581,0,0,1-5.6-28.769v-.543A73.536,73.536,0,0,1,5.8,46.045,74.524,74.524,0,0,1,75.416.184a76.374,76.374,0,0,1,30.078,5.838A72.949,72.949,0,0,1,129.28,22.031a73.84,73.84,0,0,1,21.249,52.5v.545a73.033,73.033,0,0,1-5.746,28.765,75.413,75.413,0,0,1-15.772,23.741,74.121,74.121,0,0,1-23.921,16.15,75.812,75.812,0,0,1-30.2,5.967" transform="translate(-0.053 -0.184)" fill="#fff" fill-rule="evenodd"/>
          </g>
          <path id="Fill-13" d="M76.972,16.342v.366a32.836,32.836,0,0,0,2.172,11.863,30.135,30.135,0,0,0,6.017,9.869,28.872,28.872,0,0,0,9.176,6.669,27.19,27.19,0,0,0,11.606,2.466A28.023,28.023,0,0,0,117.9,45.109a28.393,28.393,0,0,0,9.084-6.576,27.99,27.99,0,0,0,5.767-9.682,35.091,35.091,0,0,0,1.97-11.779v-.7Z" transform="translate(432.122 91.742)" fill="#82c31f" fill-rule="evenodd"/>
        </g>
      </g>
    </g>
  </g>
</svg>
